<svg xmlns="http://www.w3.org/2000/svg" xmlns:xlink="http://www.w3.org/1999/xlink" version="1.1" width="256" height="256" viewBox="0 0 256 256" xml:space="preserve">

<defs>
</defs>
<g style="stroke: none; stroke-width: 0; stroke-dasharray: none; stroke-linecap: butt; stroke-linejoin: miter; stroke-miterlimit: 10; fill: none; fill-rule: nonzero; opacity: 1;" transform="translate(1.4065934065934016 1.4065934065934016) scale(2.81 2.81)" >
	<path d="M 6.316 75.013 c 0.027 2.411 0.901 4.213 2.337 5.261 c 0.184 0.134 0.385 0.246 0.587 0.355 l -0.004 0.012 l 0.118 0.057 c 0.041 0.021 0.083 0.04 0.124 0.06 l 17.797 8.561 l 0.738 -0.428 c -0.423 -0.898 -0.671 -1.965 -0.685 -3.205 l -0.231 -20.726 l -0.209 -18.781 c -0.039 -3.497 1.713 -7.447 4.406 -10.581 L 9.962 25.318 c -2.508 3.068 -4.124 6.833 -4.086 10.187 l 0.209 18.781 L 6.316 75.013 z" style="stroke: none; stroke-width: 1; stroke-dasharray: none; stroke-linecap: butt; stroke-linejoin: miter; stroke-miterlimit: 10; fill: rgb(225,88,0); fill-rule: nonzero; opacity: 1;" transform=" matrix(1 0 0 1 0 0) " stroke-linecap="round" />
	<path d="M 62.715 0.538 L 62.71 0.546 c -1.846 -0.86 -4.335 -0.735 -7.07 0.595 L 15.923 20.457 c -2.24 1.089 -4.295 2.823 -5.961 4.861 c 0.9 7.946 6.189 11.544 18.007 8.677 c 1.606 -1.869 6.871 -1.846 8.967 -2.865 l 39.717 -19.316 c 1.36 -0.662 2.659 -1.021 3.85 -1.115 l 0.11 -1.536 L 62.715 0.538 z" style="stroke: none; stroke-width: 1; stroke-dasharray: none; stroke-linecap: butt; stroke-linejoin: miter; stroke-miterlimit: 10; fill: rgb(240,94,0); fill-rule: nonzero; opacity: 1;" transform=" matrix(1 0 0 1 0 0) " stroke-linecap="round" />
	<path d="M 73.938 9.789 L 34.119 28.714 c -5.626 2.674 -10.186 9.402 -10.186 15.028 V 62.67 v 2.006 V 83.56 c 0 5.626 4.561 8.019 10.186 5.345 l 13.736 -6.528 l 26.083 -12.396 c 5.626 -2.674 10.186 -9.402 10.186 -15.028 V 15.134 C 84.125 9.508 79.564 7.115 73.938 9.789 z" style="stroke: none; stroke-width: 1; stroke-dasharray: none; stroke-linecap: butt; stroke-linejoin: miter; stroke-miterlimit: 10; fill: rgb(255,100,0); fill-rule: nonzero; opacity: 1;" transform=" matrix(1 0 0 1 0 0) " stroke-linecap="round" />
	<polygon points="60.22,37.45 56.12,32.03 47.62,36.07 51.72,41.49 " style="stroke: none; stroke-width: 1; stroke-dasharray: none; stroke-linecap: butt; stroke-linejoin: miter; stroke-miterlimit: 10; fill: rgb(255,255,255); fill-rule: nonzero; opacity: 1;" transform="  matrix(1 0 0 1 0 0) "/>
	<path d="M 43.72 38.352 c -3.152 2.497 -5.571 6.303 -6.23 9.902 l 10.092 -4.796 L 43.72 38.352 z" style="stroke: none; stroke-width: 1; stroke-dasharray: none; stroke-linecap: butt; stroke-linejoin: miter; stroke-miterlimit: 10; fill: rgb(255,255,255); fill-rule: nonzero; opacity: 1;" transform=" matrix(1 0 0 1 0 0) " stroke-linecap="round" />
	<path d="M 37.309 51.955 V 64.44 c 0 5.06 4.117 7.22 9.177 4.815 l 15.087 -7.17 c 5.06 -2.405 9.177 -8.478 9.177 -13.538 V 36.062 L 37.309 51.955 z M 59.166 52.888 l -7.868 7.944 c -1.069 1.08 -2.362 0.919 -2.362 -0.293 v -8.41 c 0 -1.212 1.293 -2.602 2.362 -2.538 l 7.868 0.466 C 60.297 50.123 60.297 51.745 59.166 52.888 z" style="stroke: none; stroke-width: 1; stroke-dasharray: none; stroke-linecap: butt; stroke-linejoin: miter; stroke-miterlimit: 10; fill: rgb(255,255,255); fill-rule: nonzero; opacity: 1;" transform=" matrix(1 0 0 1 0 0) " stroke-linecap="round" />
	<path d="M 70.326 32.593 c -0.842 -3.796 -4.555 -5.204 -8.996 -3.094 l -1.316 0.625 l 4.1 5.42 C 64.114 35.545 70.326 32.593 70.326 32.593 z" style="stroke: none; stroke-width: 1; stroke-dasharray: none; stroke-linecap: butt; stroke-linejoin: miter; stroke-miterlimit: 10; fill: rgb(255,255,255); fill-rule: nonzero; opacity: 1;" transform=" matrix(1 0 0 1 0 0) " stroke-linecap="round" />
</g>
</svg>