<svg xmlns="http://www.w3.org/2000/svg" xmlns:xlink="http://www.w3.org/1999/xlink" version="1.1" width="256" height="256" viewBox="0 0 256 256" xml:space="preserve">

<defs>
</defs>
<g style="stroke: none; stroke-width: 0; stroke-dasharray: none; stroke-linecap: butt; stroke-linejoin: miter; stroke-miterlimit: 10; fill: none; fill-rule: nonzero; opacity: 1;" transform="translate(1.4065934065934016 1.4065934065934016) scale(2.81 2.81)" >
	<path d="M 6.316 75.013 c 0.027 2.411 0.901 4.213 2.337 5.261 c 0.184 0.134 0.385 0.246 0.587 0.355 l -0.004 0.012 l 0.118 0.057 c 0.041 0.021 0.083 0.04 0.124 0.06 l 17.797 8.561 l 0.738 -0.428 c -0.423 -0.898 -0.671 -1.965 -0.685 -3.205 l -0.231 -20.726 l -0.209 -18.781 c -0.039 -3.497 1.713 -7.447 4.406 -10.581 L 9.962 25.318 c -2.508 3.068 -4.124 6.833 -4.086 10.187 l 0.209 18.781 L 6.316 75.013 z" style="stroke: none; stroke-width: 1; stroke-dasharray: none; stroke-linecap: butt; stroke-linejoin: miter; stroke-miterlimit: 10; fill: rgb(36,152,54); fill-rule: nonzero; opacity: 1;" transform=" matrix(1 0 0 1 0 0) " stroke-linecap="round" />
	<path d="M 62.715 0.538 L 62.71 0.546 c -1.846 -0.86 -4.335 -0.735 -7.07 0.595 L 15.923 20.457 c -2.24 1.089 -4.295 2.823 -5.961 4.861 c 0.9 7.946 6.189 11.544 18.007 8.677 c 1.606 -1.869 6.871 -1.846 8.967 -2.865 l 39.717 -19.316 c 1.36 -0.662 2.659 -1.021 3.85 -1.115 l 0.11 -1.536 L 62.715 0.538 z" style="stroke: none; stroke-width: 1; stroke-dasharray: none; stroke-linecap: butt; stroke-linejoin: miter; stroke-miterlimit: 10; fill: rgb(38,165,58); fill-rule: nonzero; opacity: 1;" transform=" matrix(1 0 0 1 0 0) " stroke-linecap="round" />
	<path d="M 73.938 9.789 L 34.119 28.713 c -5.626 2.674 -10.186 9.402 -10.186 15.028 V 62.67 v 2.006 V 83.56 c 0 5.626 4.561 8.019 10.186 5.345 l 13.736 -6.528 l 26.083 -12.396 c 5.626 -2.674 10.186 -9.402 10.186 -15.028 v 0 V 15.134 C 84.125 9.508 79.564 7.115 73.938 9.789 z" style="stroke: none; stroke-width: 1; stroke-dasharray: none; stroke-linecap: butt; stroke-linejoin: miter; stroke-miterlimit: 10; fill: rgb(42,181,64); fill-rule: nonzero; opacity: 1;" transform=" matrix(1 0 0 1 0 0) " stroke-linecap="round" />
	<path d="M 65.82 31.883 c -3.129 -1.645 -7.289 -1.393 -11.722 0.711 c -9.134 4.341 -16.567 15.307 -16.571 24.445 c -0.001 2.921 0.762 5.409 2.212 7.233 l -2.351 9.704 l 8.784 -6.479 c 2.42 0.17 5.145 -0.429 7.919 -1.747 l 0.007 -0.003 c 9.132 -4.34 16.567 -15.307 16.57 -24.445 C 70.671 36.873 68.949 33.528 65.82 31.883 z M 62.836 51.158 c -0.467 1.528 -2.442 3.434 -3.326 3.986 c -0.302 0.189 -0.677 0.41 -1.105 0.613 c -0.531 0.252 -1.144 0.478 -1.805 0.581 c -0.684 0.108 -1.452 0.214 -2.423 0.256 c -3.527 0.153 -6.077 -1.762 -7.282 -2.918 l -0.064 -0.06 c -0.547 -0.471 -1.82 -1.785 -1.82 -3.813 c 0 -2.172 1.085 -3.846 1.549 -4.561 l 0.076 -0.117 c 0.607 -0.952 1.32 -1.362 1.598 -1.494 c 0.287 -0.137 0.575 -0.27 0.826 -0.378 c 0.512 -0.27 1.101 -0.4 1.517 0.401 l 0.468 0.913 c 0.306 0.599 0.724 1.42 0.79 1.522 c 0.231 0.35 0.242 0.789 0.035 1.305 l -0.055 0.139 c -0.112 0.282 -0.218 0.548 -0.449 0.928 l -0.201 0.337 c -0.158 0.268 -0.318 0.537 -0.457 0.74 c -0.014 0.022 -0.037 0.054 -0.057 0.086 c 0.324 0.4 1.079 1.211 2.153 1.659 c 1.243 0.518 2.306 0.474 2.877 0.45 c 0.127 -0.005 0.231 -0.009 0.306 -0.007 c 0.042 0.001 0.074 0 0.099 -0.002 c 0.344 -0.557 1.025 -1.689 1.253 -2.14 c 0.582 -1.153 1.375 -1.243 1.716 -1.28 c 0.477 -0.054 2.876 -0.002 2.9 -0.001 l 0.216 0.003 c 0.358 0.002 0.667 0.005 0.853 0.229 C 63.316 48.885 63.152 50.12 62.836 51.158 z" style="stroke: none; stroke-width: 1; stroke-dasharray: none; stroke-linecap: butt; stroke-linejoin: miter; stroke-miterlimit: 10; fill: rgb(255,255,255); fill-rule: nonzero; opacity: 1;" transform=" matrix(1 0 0 1 0 0) " stroke-linecap="round" />
</g>
</svg>