<svg xmlns="http://www.w3.org/2000/svg" xmlns:xlink="http://www.w3.org/1999/xlink" version="1.1" width="256" height="256" viewBox="0 0 256 256" xml:space="preserve">

<defs>
</defs>
<g style="stroke: none; stroke-width: 0; stroke-dasharray: none; stroke-linecap: butt; stroke-linejoin: miter; stroke-miterlimit: 10; fill: none; fill-rule: nonzero; opacity: 1;" transform="translate(1.4065934065934016 1.4065934065934016) scale(2.81 2.81)" >
	<path d="M 6.196 75.014 c 0.027 2.411 0.901 4.213 2.337 5.261 c 0.184 0.134 0.385 0.246 0.587 0.355 l -0.004 0.012 l 0.118 0.057 c 0.041 0.021 0.083 0.04 0.124 0.06 l 17.796 8.561 l 0.738 -0.428 c -0.423 -0.898 -0.671 -1.965 -0.685 -3.205 l -0.231 -20.726 L 26.768 46.18 c -0.039 -3.497 1.713 -7.447 4.406 -10.581 L 9.842 25.32 c -2.508 3.068 -4.123 6.833 -4.086 10.187 l 0.209 18.781 L 6.196 75.014 z" style="stroke: none; stroke-width: 1; stroke-dasharray: none; stroke-linecap: butt; stroke-linejoin: miter; stroke-miterlimit: 10; fill: rgb(210,0,139); fill-rule: nonzero; opacity: 1;" transform=" matrix(1 0 0 1 0 0) " stroke-linecap="round" />
	<path d="M 62.594 0.54 l -0.005 0.008 c -1.846 -0.86 -4.335 -0.735 -7.07 0.595 L 15.803 20.46 c -2.24 1.089 -4.295 2.823 -5.961 4.861 c 0.9 7.946 6.189 11.544 18.007 8.677 c 1.606 -1.869 6.871 -1.846 8.966 -2.865 l 39.716 -19.316 c 1.36 -0.662 2.659 -1.021 3.85 -1.115 l 0.11 -1.536 L 62.594 0.54 z" style="stroke: none; stroke-width: 1; stroke-dasharray: none; stroke-linecap: butt; stroke-linejoin: miter; stroke-miterlimit: 10; fill: rgb(229,0,151); fill-rule: nonzero; opacity: 1;" transform=" matrix(1 0 0 1 0 0) " stroke-linecap="round" />
	<path d="M 73.938 9.789 L 34.119 28.714 c -5.626 2.674 -10.186 9.402 -10.186 15.028 V 62.67 v 2.006 V 83.56 c 0 5.626 4.561 8.019 10.186 5.345 l 13.736 -6.528 l 26.083 -12.396 c 5.626 -2.674 10.186 -9.402 10.186 -15.028 V 15.134 C 84.125 9.508 79.564 7.115 73.938 9.789 z" style="stroke: none; stroke-width: 1; stroke-dasharray: none; stroke-linecap: butt; stroke-linejoin: miter; stroke-miterlimit: 10; fill: rgb(248,0,164); fill-rule: nonzero; opacity: 1;" transform=" matrix(1 0 0 1 0 0) " stroke-linecap="round" />
	<path d="M 61.287 28.174 l -14.516 6.899 c -5.78 2.747 -10.465 9.659 -10.465 15.439 v 14.516 c 0 5.78 4.685 8.238 10.465 5.491 l 14.516 -6.899 c 5.78 -2.747 10.465 -9.659 10.465 -15.439 V 33.666 C 71.752 27.886 67.067 25.428 61.287 28.174 z M 54.029 57.798 c -4.667 2.218 -8.451 0.233 -8.451 -4.435 c 0 -4.667 3.784 -10.249 8.451 -12.468 c 4.668 -2.218 8.451 -0.233 8.451 4.435 C 62.48 49.998 58.696 55.58 54.029 57.798 z M 60.791 36.673 c 0 -1.496 1.213 -3.286 2.709 -3.996 c 1.496 -0.711 2.709 -0.074 2.709 1.422 s -1.212 3.285 -2.709 3.996 C 62.004 38.805 60.791 38.169 60.791 36.673 z" style="stroke: none; stroke-width: 1; stroke-dasharray: none; stroke-linecap: butt; stroke-linejoin: miter; stroke-miterlimit: 10; fill: rgb(255,255,255); fill-rule: nonzero; opacity: 1;" transform=" matrix(1 0 0 1 0 0) " stroke-linecap="round" />
</g>
</svg>